<mxfile host="app.diagrams.net" modified="2024-01-17T20:24:22.561Z" agent="Mozilla/5.0 (X11; Linux x86_64; rv:121.0) Gecko/20100101 Firefox/121.0" etag="X-zXJGDfdKkMqjj5_alV" version="22.1.20" type="device">
  <diagram name="Page-1" id="5jzNq_MTpwD5-uuOsS3y">
    <mxGraphModel dx="2626" dy="1003" grid="1" gridSize="10" guides="1" tooltips="1" connect="1" arrows="0" fold="1" page="1" pageScale="1" pageWidth="827" pageHeight="1169" math="0" shadow="0">
      <root>
        <mxCell id="0" />
        <mxCell id="1" parent="0" />
        <mxCell id="PmyjPZmIPsv8LRqFI0As-14" value="Client" style="rounded=0;whiteSpace=wrap;html=1;" parent="1" vertex="1">
          <mxGeometry x="230" y="368.25" width="90" height="40" as="geometry" />
        </mxCell>
        <mxCell id="PmyjPZmIPsv8LRqFI0As-15" value="&lt;u&gt;clientID&lt;/u&gt;" style="ellipse;whiteSpace=wrap;html=1;" parent="1" vertex="1">
          <mxGeometry x="165" y="295" width="60" height="30" as="geometry" />
        </mxCell>
        <mxCell id="PmyjPZmIPsv8LRqFI0As-19" value="City" style="rounded=0;whiteSpace=wrap;html=1;" parent="1" vertex="1">
          <mxGeometry x="230" y="170" width="90" height="40" as="geometry" />
        </mxCell>
        <mxCell id="PmyjPZmIPsv8LRqFI0As-21" value="" style="endArrow=none;html=1;rounded=0;exitX=0.5;exitY=0;exitDx=0;exitDy=0;entryX=0.5;entryY=1;entryDx=0;entryDy=0;" parent="1" source="PmyjPZmIPsv8LRqFI0As-14" target="PmyjPZmIPsv8LRqFI0As-20" edge="1">
          <mxGeometry width="50" height="50" relative="1" as="geometry">
            <mxPoint x="255" y="369.99999999999994" as="sourcePoint" />
            <mxPoint x="295" y="370" as="targetPoint" />
          </mxGeometry>
        </mxCell>
        <mxCell id="PmyjPZmIPsv8LRqFI0As-23" value="a15" style="ellipse;whiteSpace=wrap;html=1;" parent="1" vertex="1">
          <mxGeometry x="219" y="98" width="40" height="20" as="geometry" />
        </mxCell>
        <mxCell id="PmyjPZmIPsv8LRqFI0As-24" value="&lt;div&gt;a16&lt;/div&gt;" style="ellipse;whiteSpace=wrap;html=1;" parent="1" vertex="1">
          <mxGeometry x="186" y="118" width="40" height="20" as="geometry" />
        </mxCell>
        <mxCell id="PmyjPZmIPsv8LRqFI0As-25" value="a14" style="ellipse;whiteSpace=wrap;html=1;" parent="1" vertex="1">
          <mxGeometry x="258" y="104" width="40" height="20" as="geometry" />
        </mxCell>
        <mxCell id="PmyjPZmIPsv8LRqFI0As-26" value="a2" style="ellipse;whiteSpace=wrap;html=1;" parent="1" vertex="1">
          <mxGeometry x="160" y="160" width="40" height="20" as="geometry" />
        </mxCell>
        <mxCell id="PmyjPZmIPsv8LRqFI0As-27" value="&lt;u&gt;a1&lt;/u&gt;" style="ellipse;whiteSpace=wrap;html=1;" parent="1" vertex="1">
          <mxGeometry x="165" y="138" width="40" height="20" as="geometry" />
        </mxCell>
        <mxCell id="PmyjPZmIPsv8LRqFI0As-28" value="a3" style="ellipse;whiteSpace=wrap;html=1;" parent="1" vertex="1">
          <mxGeometry x="160" y="180" width="40" height="20" as="geometry" />
        </mxCell>
        <mxCell id="PmyjPZmIPsv8LRqFI0As-29" value="a13" style="ellipse;whiteSpace=wrap;html=1;" parent="1" vertex="1">
          <mxGeometry x="286" y="118" width="40" height="20" as="geometry" />
        </mxCell>
        <mxCell id="PmyjPZmIPsv8LRqFI0As-30" value="a12" style="ellipse;whiteSpace=wrap;html=1;" parent="1" vertex="1">
          <mxGeometry x="319" y="130" width="40" height="20" as="geometry" />
        </mxCell>
        <mxCell id="PmyjPZmIPsv8LRqFI0As-31" value="&lt;div&gt;a4&lt;/div&gt;" style="ellipse;whiteSpace=wrap;html=1;" parent="1" vertex="1">
          <mxGeometry x="165" y="200" width="40" height="20" as="geometry" />
        </mxCell>
        <mxCell id="PmyjPZmIPsv8LRqFI0As-32" value="a11" style="ellipse;whiteSpace=wrap;html=1;" parent="1" vertex="1">
          <mxGeometry x="349" y="145" width="40" height="20" as="geometry" />
        </mxCell>
        <mxCell id="PmyjPZmIPsv8LRqFI0As-33" value="a7" style="ellipse;whiteSpace=wrap;html=1;" parent="1" vertex="1">
          <mxGeometry x="399" y="220" width="40" height="20" as="geometry" />
        </mxCell>
        <mxCell id="PmyjPZmIPsv8LRqFI0As-34" value="a9" style="ellipse;whiteSpace=wrap;html=1;" parent="1" vertex="1">
          <mxGeometry x="399" y="180" width="40" height="20" as="geometry" />
        </mxCell>
        <mxCell id="PmyjPZmIPsv8LRqFI0As-35" value="a10" style="ellipse;whiteSpace=wrap;html=1;" parent="1" vertex="1">
          <mxGeometry x="379" y="160" width="40" height="20" as="geometry" />
        </mxCell>
        <mxCell id="PmyjPZmIPsv8LRqFI0As-36" value="a8" style="ellipse;whiteSpace=wrap;html=1;" parent="1" vertex="1">
          <mxGeometry x="409" y="200" width="40" height="20" as="geometry" />
        </mxCell>
        <mxCell id="PmyjPZmIPsv8LRqFI0As-37" value="a6" style="ellipse;whiteSpace=wrap;html=1;" parent="1" vertex="1">
          <mxGeometry x="369" y="235" width="40" height="20" as="geometry" />
        </mxCell>
        <mxCell id="PmyjPZmIPsv8LRqFI0As-38" value="a5" style="ellipse;whiteSpace=wrap;html=1;" parent="1" vertex="1">
          <mxGeometry x="339" y="250" width="40" height="20" as="geometry" />
        </mxCell>
        <mxCell id="PmyjPZmIPsv8LRqFI0As-46" value="" style="endArrow=none;html=1;rounded=0;entryX=0.5;entryY=1;entryDx=0;entryDy=0;exitX=0.05;exitY=-0.014;exitDx=0;exitDy=0;exitPerimeter=0;" parent="1" source="PmyjPZmIPsv8LRqFI0As-19" target="PmyjPZmIPsv8LRqFI0As-24" edge="1">
          <mxGeometry width="50" height="50" relative="1" as="geometry">
            <mxPoint x="269" y="162" as="sourcePoint" />
            <mxPoint x="319" y="112" as="targetPoint" />
          </mxGeometry>
        </mxCell>
        <mxCell id="PmyjPZmIPsv8LRqFI0As-47" value="" style="endArrow=none;html=1;rounded=0;exitX=0.13;exitY=-0.004;exitDx=0;exitDy=0;exitPerimeter=0;entryX=0.609;entryY=0.98;entryDx=0;entryDy=0;entryPerimeter=0;" parent="1" source="PmyjPZmIPsv8LRqFI0As-19" target="PmyjPZmIPsv8LRqFI0As-23" edge="1">
          <mxGeometry width="50" height="50" relative="1" as="geometry">
            <mxPoint x="269" y="162" as="sourcePoint" />
            <mxPoint x="319" y="112" as="targetPoint" />
          </mxGeometry>
        </mxCell>
        <mxCell id="PmyjPZmIPsv8LRqFI0As-48" value="" style="endArrow=none;html=1;rounded=0;entryX=0.5;entryY=1;entryDx=0;entryDy=0;exitX=0.25;exitY=0;exitDx=0;exitDy=0;" parent="1" source="PmyjPZmIPsv8LRqFI0As-19" target="PmyjPZmIPsv8LRqFI0As-25" edge="1">
          <mxGeometry width="50" height="50" relative="1" as="geometry">
            <mxPoint x="269" y="162" as="sourcePoint" />
            <mxPoint x="319" y="112" as="targetPoint" />
          </mxGeometry>
        </mxCell>
        <mxCell id="PmyjPZmIPsv8LRqFI0As-49" value="" style="endArrow=none;html=1;rounded=0;entryX=0.5;entryY=1;entryDx=0;entryDy=0;exitX=0.397;exitY=-0.004;exitDx=0;exitDy=0;exitPerimeter=0;" parent="1" source="PmyjPZmIPsv8LRqFI0As-19" target="PmyjPZmIPsv8LRqFI0As-29" edge="1">
          <mxGeometry width="50" height="50" relative="1" as="geometry">
            <mxPoint x="269" y="162" as="sourcePoint" />
            <mxPoint x="319" y="112" as="targetPoint" />
          </mxGeometry>
        </mxCell>
        <mxCell id="PmyjPZmIPsv8LRqFI0As-50" value="" style="endArrow=none;html=1;rounded=0;entryX=0.5;entryY=1;entryDx=0;entryDy=0;exitX=0.638;exitY=-0.004;exitDx=0;exitDy=0;exitPerimeter=0;" parent="1" source="PmyjPZmIPsv8LRqFI0As-19" target="PmyjPZmIPsv8LRqFI0As-30" edge="1">
          <mxGeometry width="50" height="50" relative="1" as="geometry">
            <mxPoint x="269" y="162" as="sourcePoint" />
            <mxPoint x="319" y="112" as="targetPoint" />
          </mxGeometry>
        </mxCell>
        <mxCell id="PmyjPZmIPsv8LRqFI0As-51" value="" style="endArrow=none;html=1;rounded=0;entryX=0.5;entryY=1;entryDx=0;entryDy=0;exitX=0.81;exitY=-0.004;exitDx=0;exitDy=0;exitPerimeter=0;" parent="1" source="PmyjPZmIPsv8LRqFI0As-19" target="PmyjPZmIPsv8LRqFI0As-32" edge="1">
          <mxGeometry width="50" height="50" relative="1" as="geometry">
            <mxPoint x="269" y="162" as="sourcePoint" />
            <mxPoint x="319" y="112" as="targetPoint" />
          </mxGeometry>
        </mxCell>
        <mxCell id="PmyjPZmIPsv8LRqFI0As-52" value="" style="endArrow=none;html=1;rounded=0;entryX=0;entryY=1;entryDx=0;entryDy=0;exitX=1;exitY=0.25;exitDx=0;exitDy=0;" parent="1" source="PmyjPZmIPsv8LRqFI0As-19" target="PmyjPZmIPsv8LRqFI0As-35" edge="1">
          <mxGeometry width="50" height="50" relative="1" as="geometry">
            <mxPoint x="269" y="162" as="sourcePoint" />
            <mxPoint x="319" y="112" as="targetPoint" />
          </mxGeometry>
        </mxCell>
        <mxCell id="PmyjPZmIPsv8LRqFI0As-53" value="" style="endArrow=none;html=1;rounded=0;entryX=0;entryY=0.5;entryDx=0;entryDy=0;exitX=1;exitY=0.5;exitDx=0;exitDy=0;" parent="1" source="PmyjPZmIPsv8LRqFI0As-19" target="PmyjPZmIPsv8LRqFI0As-34" edge="1">
          <mxGeometry width="50" height="50" relative="1" as="geometry">
            <mxPoint x="269" y="162" as="sourcePoint" />
            <mxPoint x="319" y="112" as="targetPoint" />
          </mxGeometry>
        </mxCell>
        <mxCell id="PmyjPZmIPsv8LRqFI0As-54" value="" style="endArrow=none;html=1;rounded=0;entryX=0;entryY=0.5;entryDx=0;entryDy=0;exitX=1;exitY=0.75;exitDx=0;exitDy=0;" parent="1" source="PmyjPZmIPsv8LRqFI0As-19" target="PmyjPZmIPsv8LRqFI0As-36" edge="1">
          <mxGeometry width="50" height="50" relative="1" as="geometry">
            <mxPoint x="269" y="162" as="sourcePoint" />
            <mxPoint x="319" y="112" as="targetPoint" />
          </mxGeometry>
        </mxCell>
        <mxCell id="PmyjPZmIPsv8LRqFI0As-55" value="" style="endArrow=none;html=1;rounded=0;entryX=0.041;entryY=0.273;entryDx=0;entryDy=0;entryPerimeter=0;exitX=1;exitY=0.868;exitDx=0;exitDy=0;exitPerimeter=0;" parent="1" source="PmyjPZmIPsv8LRqFI0As-19" target="PmyjPZmIPsv8LRqFI0As-33" edge="1">
          <mxGeometry width="50" height="50" relative="1" as="geometry">
            <mxPoint x="269" y="162" as="sourcePoint" />
            <mxPoint x="319" y="112" as="targetPoint" />
          </mxGeometry>
        </mxCell>
        <mxCell id="PmyjPZmIPsv8LRqFI0As-56" value="" style="endArrow=none;html=1;rounded=0;exitX=0;exitY=0;exitDx=0;exitDy=0;entryX=1;entryY=1;entryDx=0;entryDy=0;" parent="1" source="PmyjPZmIPsv8LRqFI0As-37" target="PmyjPZmIPsv8LRqFI0As-19" edge="1">
          <mxGeometry width="50" height="50" relative="1" as="geometry">
            <mxPoint x="319" y="162" as="sourcePoint" />
            <mxPoint x="369" y="112" as="targetPoint" />
          </mxGeometry>
        </mxCell>
        <mxCell id="PmyjPZmIPsv8LRqFI0As-57" value="" style="endArrow=none;html=1;rounded=0;exitX=0;exitY=0;exitDx=0;exitDy=0;entryX=0.927;entryY=1.005;entryDx=0;entryDy=0;entryPerimeter=0;" parent="1" source="PmyjPZmIPsv8LRqFI0As-38" target="PmyjPZmIPsv8LRqFI0As-19" edge="1">
          <mxGeometry width="50" height="50" relative="1" as="geometry">
            <mxPoint x="319" y="162" as="sourcePoint" />
            <mxPoint x="369" y="112" as="targetPoint" />
          </mxGeometry>
        </mxCell>
        <mxCell id="PmyjPZmIPsv8LRqFI0As-58" value="" style="endArrow=none;html=1;rounded=0;exitX=1;exitY=0.5;exitDx=0;exitDy=0;entryX=0;entryY=0.75;entryDx=0;entryDy=0;" parent="1" source="PmyjPZmIPsv8LRqFI0As-31" target="PmyjPZmIPsv8LRqFI0As-19" edge="1">
          <mxGeometry width="50" height="50" relative="1" as="geometry">
            <mxPoint x="319" y="162" as="sourcePoint" />
            <mxPoint x="369" y="112" as="targetPoint" />
          </mxGeometry>
        </mxCell>
        <mxCell id="PmyjPZmIPsv8LRqFI0As-59" value="" style="endArrow=none;html=1;rounded=0;exitX=1;exitY=0.5;exitDx=0;exitDy=0;entryX=-0.003;entryY=0.64;entryDx=0;entryDy=0;entryPerimeter=0;" parent="1" source="PmyjPZmIPsv8LRqFI0As-28" target="PmyjPZmIPsv8LRqFI0As-19" edge="1">
          <mxGeometry width="50" height="50" relative="1" as="geometry">
            <mxPoint x="319" y="162" as="sourcePoint" />
            <mxPoint x="369" y="112" as="targetPoint" />
          </mxGeometry>
        </mxCell>
        <mxCell id="PmyjPZmIPsv8LRqFI0As-60" value="" style="endArrow=none;html=1;rounded=0;exitX=1;exitY=1;exitDx=0;exitDy=0;entryX=0;entryY=0.5;entryDx=0;entryDy=0;" parent="1" source="PmyjPZmIPsv8LRqFI0As-26" target="PmyjPZmIPsv8LRqFI0As-19" edge="1">
          <mxGeometry width="50" height="50" relative="1" as="geometry">
            <mxPoint x="319" y="162" as="sourcePoint" />
            <mxPoint x="369" y="112" as="targetPoint" />
          </mxGeometry>
        </mxCell>
        <mxCell id="PmyjPZmIPsv8LRqFI0As-64" value="Dispones" style="rhombus;whiteSpace=wrap;html=1;" parent="1" vertex="1">
          <mxGeometry x="240" y="447.59" width="70" height="70" as="geometry" />
        </mxCell>
        <mxCell id="PmyjPZmIPsv8LRqFI0As-65" value="Account" style="rounded=0;whiteSpace=wrap;html=1;" parent="1" vertex="1">
          <mxGeometry x="230" y="732.32" width="90" height="40" as="geometry" />
        </mxCell>
        <mxCell id="PmyjPZmIPsv8LRqFI0As-70" value="&lt;font style=&quot;font-size: 8px;&quot;&gt;(1,1)&lt;/font&gt;" style="text;html=1;strokeColor=none;fillColor=none;align=center;verticalAlign=middle;whiteSpace=wrap;rounded=0;" parent="1" vertex="1">
          <mxGeometry x="254" y="334.82" width="20" height="7.5" as="geometry" />
        </mxCell>
        <mxCell id="PmyjPZmIPsv8LRqFI0As-71" value="&lt;font style=&quot;font-size: 8px;&quot;&gt;(M,1)&lt;/font&gt;" style="text;html=1;strokeColor=none;fillColor=none;align=center;verticalAlign=middle;whiteSpace=wrap;rounded=0;" parent="1" vertex="1">
          <mxGeometry x="256" y="220" width="14" height="7.5" as="geometry" />
        </mxCell>
        <mxCell id="PmyjPZmIPsv8LRqFI0As-81" value="statementFreq" style="ellipse;whiteSpace=wrap;html=1;" parent="1" vertex="1">
          <mxGeometry x="337" y="789" width="92" height="27.32" as="geometry" />
        </mxCell>
        <mxCell id="PmyjPZmIPsv8LRqFI0As-83" value="creationDate" style="ellipse;whiteSpace=wrap;html=1;" parent="1" vertex="1">
          <mxGeometry x="234.5" y="809" width="81" height="23.32" as="geometry" />
        </mxCell>
        <mxCell id="RKfO6y1YNoKgrtGscj-k-16" value="" style="endArrow=none;html=1;rounded=0;exitX=0.5;exitY=0;exitDx=0;exitDy=0;entryX=0.5;entryY=1;entryDx=0;entryDy=0;" parent="1" source="PmyjPZmIPsv8LRqFI0As-20" edge="1">
          <mxGeometry width="50" height="50" relative="1" as="geometry">
            <mxPoint x="274.76" y="270" as="sourcePoint" />
            <mxPoint x="274.76" y="210" as="targetPoint" />
          </mxGeometry>
        </mxCell>
        <mxCell id="RKfO6y1YNoKgrtGscj-k-17" value="" style="endArrow=none;html=1;rounded=0;exitX=1;exitY=1;exitDx=0;exitDy=0;entryX=0.003;entryY=0.14;entryDx=0;entryDy=0;entryPerimeter=0;" parent="1" source="PmyjPZmIPsv8LRqFI0As-27" target="PmyjPZmIPsv8LRqFI0As-19" edge="1">
          <mxGeometry width="50" height="50" relative="1" as="geometry">
            <mxPoint x="211" y="175" as="sourcePoint" />
            <mxPoint x="285" y="205" as="targetPoint" />
          </mxGeometry>
        </mxCell>
        <mxCell id="RKfO6y1YNoKgrtGscj-k-18" value="Transaction" style="rounded=0;whiteSpace=wrap;html=1;" parent="1" vertex="1">
          <mxGeometry x="573" y="595.36" width="90" height="40" as="geometry" />
        </mxCell>
        <mxCell id="RKfO6y1YNoKgrtGscj-k-19" value="&lt;u&gt;transID&lt;/u&gt;" style="ellipse;whiteSpace=wrap;html=1;" parent="1" vertex="1">
          <mxGeometry x="483" y="579.36" width="70" height="31.75" as="geometry" />
        </mxCell>
        <mxCell id="RKfO6y1YNoKgrtGscj-k-20" value="accountID" style="ellipse;whiteSpace=wrap;html=1;" parent="1" vertex="1">
          <mxGeometry x="643" y="519.6800000000001" width="70" height="29.5" as="geometry" />
        </mxCell>
        <mxCell id="RKfO6y1YNoKgrtGscj-k-21" value="transDate" style="ellipse;whiteSpace=wrap;html=1;" parent="1" vertex="1">
          <mxGeometry x="523" y="545.1800000000001" width="70" height="30" as="geometry" />
        </mxCell>
        <mxCell id="RKfO6y1YNoKgrtGscj-k-22" value="transType" style="ellipse;whiteSpace=wrap;html=1;" parent="1" vertex="1">
          <mxGeometry x="573" y="507.68" width="70" height="30" as="geometry" />
        </mxCell>
        <mxCell id="RKfO6y1YNoKgrtGscj-k-23" value="operationNature" style="ellipse;whiteSpace=wrap;html=1;" parent="1" vertex="1">
          <mxGeometry x="693" y="545.1800000000001" width="90" height="30" as="geometry" />
        </mxCell>
        <mxCell id="RKfO6y1YNoKgrtGscj-k-24" value="transAmount" style="ellipse;whiteSpace=wrap;html=1;" parent="1" vertex="1">
          <mxGeometry x="725" y="581.5699999999999" width="80" height="27.32" as="geometry" />
        </mxCell>
        <mxCell id="RKfO6y1YNoKgrtGscj-k-25" value="remainingBalance" style="ellipse;whiteSpace=wrap;html=1;" parent="1" vertex="1">
          <mxGeometry x="708" y="620.36" width="110" height="30" as="geometry" />
        </mxCell>
        <mxCell id="RKfO6y1YNoKgrtGscj-k-26" value="transDetail" style="ellipse;whiteSpace=wrap;html=1;" parent="1" vertex="1">
          <mxGeometry x="543" y="677.1099999999999" width="70" height="30" as="geometry" />
        </mxCell>
        <mxCell id="RKfO6y1YNoKgrtGscj-k-27" value="partnerBank" style="ellipse;whiteSpace=wrap;html=1;" parent="1" vertex="1">
          <mxGeometry x="623" y="692.8599999999999" width="80" height="30" as="geometry" />
        </mxCell>
        <mxCell id="RKfO6y1YNoKgrtGscj-k-28" value="partnerAccount" style="ellipse;whiteSpace=wrap;html=1;" parent="1" vertex="1">
          <mxGeometry x="688" y="663.99" width="90" height="30" as="geometry" />
        </mxCell>
        <mxCell id="RKfO6y1YNoKgrtGscj-k-29" value="Makes" style="rhombus;whiteSpace=wrap;html=1;" parent="1" vertex="1">
          <mxGeometry x="413" y="717.4999999999999" width="70" height="70" as="geometry" />
        </mxCell>
        <mxCell id="RKfO6y1YNoKgrtGscj-k-31" value="" style="endArrow=none;html=1;rounded=0;exitX=1;exitY=0.5;exitDx=0;exitDy=0;entryX=0;entryY=0.5;entryDx=0;entryDy=0;" parent="1" source="PmyjPZmIPsv8LRqFI0As-65" target="RKfO6y1YNoKgrtGscj-k-29" edge="1">
          <mxGeometry width="50" height="50" relative="1" as="geometry">
            <mxPoint x="541" y="660" as="sourcePoint" />
            <mxPoint x="430" y="555" as="targetPoint" />
          </mxGeometry>
        </mxCell>
        <mxCell id="RKfO6y1YNoKgrtGscj-k-32" value="" style="endArrow=none;html=1;rounded=0;entryX=0;entryY=0.5;entryDx=0;entryDy=0;exitX=1;exitY=0;exitDx=0;exitDy=0;" parent="1" source="RKfO6y1YNoKgrtGscj-k-29" target="RKfO6y1YNoKgrtGscj-k-18" edge="1">
          <mxGeometry width="50" height="50" relative="1" as="geometry">
            <mxPoint x="453" y="540" as="sourcePoint" />
            <mxPoint x="443" y="490" as="targetPoint" />
          </mxGeometry>
        </mxCell>
        <mxCell id="RKfO6y1YNoKgrtGscj-k-40" value="&lt;font style=&quot;font-size: 8px;&quot;&gt;(0,M)&lt;/font&gt;" style="text;html=1;strokeColor=none;fillColor=none;align=center;verticalAlign=middle;whiteSpace=wrap;rounded=0;" parent="1" vertex="1">
          <mxGeometry x="373" y="742.4999999999999" width="20" height="7.5" as="geometry" />
        </mxCell>
        <mxCell id="RKfO6y1YNoKgrtGscj-k-41" value="&lt;font style=&quot;font-size: 8px;&quot;&gt;(1,1)&lt;/font&gt;" style="text;html=1;strokeColor=none;fillColor=none;align=center;verticalAlign=middle;whiteSpace=wrap;rounded=0;" parent="1" vertex="1">
          <mxGeometry x="493" y="671.5" width="20" height="7.5" as="geometry" />
        </mxCell>
        <mxCell id="RKfO6y1YNoKgrtGscj-k-43" value="StandingOrder" style="rounded=0;whiteSpace=wrap;html=1;" parent="1" vertex="1">
          <mxGeometry x="578" y="855" width="90" height="40" as="geometry" />
        </mxCell>
        <mxCell id="RKfO6y1YNoKgrtGscj-k-45" value="" style="endArrow=none;html=1;rounded=0;entryX=0;entryY=0.5;entryDx=0;entryDy=0;exitX=1;exitY=1;exitDx=0;exitDy=0;" parent="1" source="RKfO6y1YNoKgrtGscj-k-29" target="RKfO6y1YNoKgrtGscj-k-43" edge="1">
          <mxGeometry width="50" height="50" relative="1" as="geometry">
            <mxPoint x="483" y="540" as="sourcePoint" />
            <mxPoint x="533" y="490" as="targetPoint" />
          </mxGeometry>
        </mxCell>
        <mxCell id="RKfO6y1YNoKgrtGscj-k-46" value="&lt;u&gt;orderID&lt;/u&gt;" style="ellipse;whiteSpace=wrap;html=1;" parent="1" vertex="1">
          <mxGeometry x="583" y="945" width="80" height="30" as="geometry" />
        </mxCell>
        <mxCell id="RKfO6y1YNoKgrtGscj-k-48" value="accountID" style="ellipse;whiteSpace=wrap;html=1;" parent="1" vertex="1">
          <mxGeometry x="698" y="850" width="70" height="29.5" as="geometry" />
        </mxCell>
        <mxCell id="RKfO6y1YNoKgrtGscj-k-49" value="recipientBank" style="ellipse;whiteSpace=wrap;html=1;" parent="1" vertex="1">
          <mxGeometry x="471" y="879.5" width="80" height="29.5" as="geometry" />
        </mxCell>
        <mxCell id="RKfO6y1YNoKgrtGscj-k-50" value="recipientAccount" style="ellipse;whiteSpace=wrap;html=1;" parent="1" vertex="1">
          <mxGeometry x="488" y="920.5" width="100" height="29.5" as="geometry" />
        </mxCell>
        <mxCell id="RKfO6y1YNoKgrtGscj-k-51" value="orderAmount" style="ellipse;whiteSpace=wrap;html=1;" parent="1" vertex="1">
          <mxGeometry x="698" y="891" width="80" height="29.5" as="geometry" />
        </mxCell>
        <mxCell id="RKfO6y1YNoKgrtGscj-k-52" value="paymentType" style="ellipse;whiteSpace=wrap;html=1;" parent="1" vertex="1">
          <mxGeometry x="663" y="925" width="80" height="29.5" as="geometry" />
        </mxCell>
        <mxCell id="RKfO6y1YNoKgrtGscj-k-54" value="&lt;font style=&quot;font-size: 8px;&quot;&gt;(1,1)&lt;/font&gt;" style="text;html=1;strokeColor=none;fillColor=none;align=center;verticalAlign=middle;whiteSpace=wrap;rounded=0;" parent="1" vertex="1">
          <mxGeometry x="493" y="816.91" width="20" height="7.5" as="geometry" />
        </mxCell>
        <mxCell id="RKfO6y1YNoKgrtGscj-k-61" value="Loan" style="rounded=0;whiteSpace=wrap;html=1;" parent="1" vertex="1">
          <mxGeometry x="-59" y="732.32" width="90" height="40" as="geometry" />
        </mxCell>
        <mxCell id="RKfO6y1YNoKgrtGscj-k-63" value="&lt;u&gt;loanID&lt;/u&gt;" style="ellipse;whiteSpace=wrap;html=1;" parent="1" vertex="1">
          <mxGeometry x="-54.5" y="671.5" width="81" height="29.82" as="geometry" />
        </mxCell>
        <mxCell id="RKfO6y1YNoKgrtGscj-k-64" value="accountID" style="ellipse;whiteSpace=wrap;html=1;" parent="1" vertex="1">
          <mxGeometry x="-145" y="687.5" width="81" height="29.82" as="geometry" />
        </mxCell>
        <mxCell id="RKfO6y1YNoKgrtGscj-k-66" value="amountApproved" style="ellipse;whiteSpace=wrap;html=1;" parent="1" vertex="1">
          <mxGeometry x="-64" y="816.3199999999999" width="100" height="29.82" as="geometry" />
        </mxCell>
        <mxCell id="RKfO6y1YNoKgrtGscj-k-67" value="duration" style="ellipse;whiteSpace=wrap;html=1;" parent="1" vertex="1">
          <mxGeometry x="-160" y="790.68" width="81" height="29.82" as="geometry" />
        </mxCell>
        <mxCell id="RKfO6y1YNoKgrtGscj-k-71" value="loanStatus" style="ellipse;whiteSpace=wrap;html=1;" parent="1" vertex="1">
          <mxGeometry x="55.75" y="680.87" width="81" height="29.82" as="geometry" />
        </mxCell>
        <mxCell id="RKfO6y1YNoKgrtGscj-k-74" value="&lt;font style=&quot;font-size: 8px;&quot;&gt;(1,1)&lt;/font&gt;" style="text;html=1;strokeColor=none;fillColor=none;align=center;verticalAlign=middle;whiteSpace=wrap;rounded=0;" parent="1" vertex="1">
          <mxGeometry x="55" y="742.5" width="20" height="7.5" as="geometry" />
        </mxCell>
        <mxCell id="RKfO6y1YNoKgrtGscj-k-75" value="CreditCard" style="rounded=0;whiteSpace=wrap;html=1;" parent="1" vertex="1">
          <mxGeometry x="-59" y="552.26" width="90" height="40" as="geometry" />
        </mxCell>
        <mxCell id="RKfO6y1YNoKgrtGscj-k-77" value="&lt;u&gt;cardID&lt;/u&gt;" style="ellipse;whiteSpace=wrap;html=1;" parent="1" vertex="1">
          <mxGeometry x="31" y="507.68" width="81" height="29.82" as="geometry" />
        </mxCell>
        <mxCell id="RKfO6y1YNoKgrtGscj-k-78" value="dispositionID" style="ellipse;whiteSpace=wrap;html=1;" parent="1" vertex="1">
          <mxGeometry x="-54.5" y="487.7699999999999" width="81" height="29.82" as="geometry" />
        </mxCell>
        <mxCell id="RKfO6y1YNoKgrtGscj-k-79" value="cardType" style="ellipse;whiteSpace=wrap;html=1;" parent="1" vertex="1">
          <mxGeometry x="-54.5" y="632.41" width="81" height="29.82" as="geometry" />
        </mxCell>
        <mxCell id="RKfO6y1YNoKgrtGscj-k-80" value="issueDate" style="ellipse;whiteSpace=wrap;html=1;" parent="1" vertex="1">
          <mxGeometry x="30" y="612.3199999999999" width="81" height="29.82" as="geometry" />
        </mxCell>
        <mxCell id="RKfO6y1YNoKgrtGscj-k-81" value="" style="endArrow=none;html=1;rounded=0;exitX=0.75;exitY=0;exitDx=0;exitDy=0;entryX=0;entryY=1;entryDx=0;entryDy=0;" parent="1" source="RKfO6y1YNoKgrtGscj-k-75" target="RKfO6y1YNoKgrtGscj-k-77" edge="1">
          <mxGeometry width="50" height="50" relative="1" as="geometry">
            <mxPoint x="-29" y="532.26" as="sourcePoint" />
            <mxPoint x="21" y="482.26000000000005" as="targetPoint" />
          </mxGeometry>
        </mxCell>
        <mxCell id="RKfO6y1YNoKgrtGscj-k-82" value="" style="endArrow=none;html=1;rounded=0;entryX=0.5;entryY=0;entryDx=0;entryDy=0;exitX=0.5;exitY=1;exitDx=0;exitDy=0;" parent="1" source="RKfO6y1YNoKgrtGscj-k-78" target="RKfO6y1YNoKgrtGscj-k-75" edge="1">
          <mxGeometry width="50" height="50" relative="1" as="geometry">
            <mxPoint x="-29" y="532.26" as="sourcePoint" />
            <mxPoint x="21" y="482.26000000000005" as="targetPoint" />
          </mxGeometry>
        </mxCell>
        <mxCell id="RKfO6y1YNoKgrtGscj-k-83" value="" style="endArrow=none;html=1;rounded=0;entryX=0;entryY=0;entryDx=0;entryDy=0;exitX=0.75;exitY=1;exitDx=0;exitDy=0;" parent="1" source="RKfO6y1YNoKgrtGscj-k-75" target="RKfO6y1YNoKgrtGscj-k-80" edge="1">
          <mxGeometry width="50" height="50" relative="1" as="geometry">
            <mxPoint x="-29" y="532.26" as="sourcePoint" />
            <mxPoint x="21" y="482.26000000000005" as="targetPoint" />
          </mxGeometry>
        </mxCell>
        <mxCell id="RKfO6y1YNoKgrtGscj-k-84" value="" style="endArrow=none;html=1;rounded=0;exitX=0.5;exitY=0;exitDx=0;exitDy=0;entryX=0.5;entryY=1;entryDx=0;entryDy=0;" parent="1" source="RKfO6y1YNoKgrtGscj-k-79" target="RKfO6y1YNoKgrtGscj-k-75" edge="1">
          <mxGeometry width="50" height="50" relative="1" as="geometry">
            <mxPoint x="-29" y="532.26" as="sourcePoint" />
            <mxPoint x="21" y="482.26000000000005" as="targetPoint" />
          </mxGeometry>
        </mxCell>
        <mxCell id="RKfO6y1YNoKgrtGscj-k-85" value="" style="endArrow=none;html=1;rounded=0;entryX=0.5;entryY=1;entryDx=0;entryDy=0;exitX=0.5;exitY=0;exitDx=0;exitDy=0;" parent="1" source="RKfO6y1YNoKgrtGscj-k-61" target="RKfO6y1YNoKgrtGscj-k-63" edge="1">
          <mxGeometry width="50" height="50" relative="1" as="geometry">
            <mxPoint x="-10" y="741.87" as="sourcePoint" />
            <mxPoint x="40" y="691.87" as="targetPoint" />
          </mxGeometry>
        </mxCell>
        <mxCell id="RKfO6y1YNoKgrtGscj-k-86" value="" style="endArrow=none;html=1;rounded=0;entryX=0;entryY=1;entryDx=0;entryDy=0;exitX=1;exitY=0.25;exitDx=0;exitDy=0;" parent="1" source="RKfO6y1YNoKgrtGscj-k-61" target="RKfO6y1YNoKgrtGscj-k-71" edge="1">
          <mxGeometry width="50" height="50" relative="1" as="geometry">
            <mxPoint x="-10" y="741.87" as="sourcePoint" />
            <mxPoint x="40" y="691.87" as="targetPoint" />
          </mxGeometry>
        </mxCell>
        <mxCell id="RKfO6y1YNoKgrtGscj-k-87" value="" style="endArrow=none;html=1;rounded=0;entryX=1;entryY=1;entryDx=0;entryDy=0;exitX=0.25;exitY=0;exitDx=0;exitDy=0;" parent="1" source="RKfO6y1YNoKgrtGscj-k-61" target="RKfO6y1YNoKgrtGscj-k-64" edge="1">
          <mxGeometry width="50" height="50" relative="1" as="geometry">
            <mxPoint x="-10" y="741.87" as="sourcePoint" />
            <mxPoint x="40" y="691.87" as="targetPoint" />
          </mxGeometry>
        </mxCell>
        <mxCell id="RKfO6y1YNoKgrtGscj-k-88" value="" style="endArrow=none;html=1;rounded=0;entryX=1;entryY=0.5;entryDx=0;entryDy=0;exitX=0;exitY=0.5;exitDx=0;exitDy=0;" parent="1" source="RKfO6y1YNoKgrtGscj-k-61" target="ytKKcmS-jhj2WB2D3jcE-40" edge="1">
          <mxGeometry width="50" height="50" relative="1" as="geometry">
            <mxPoint x="-60" y="750" as="sourcePoint" />
            <mxPoint x="-109.50000000000318" y="752.3199999999999" as="targetPoint" />
          </mxGeometry>
        </mxCell>
        <mxCell id="RKfO6y1YNoKgrtGscj-k-89" value="" style="endArrow=none;html=1;rounded=0;entryX=0.5;entryY=0;entryDx=0;entryDy=0;exitX=0.5;exitY=1;exitDx=0;exitDy=0;" parent="1" source="RKfO6y1YNoKgrtGscj-k-61" target="RKfO6y1YNoKgrtGscj-k-66" edge="1">
          <mxGeometry width="50" height="50" relative="1" as="geometry">
            <mxPoint x="-10" y="741.87" as="sourcePoint" />
            <mxPoint x="40" y="691.87" as="targetPoint" />
          </mxGeometry>
        </mxCell>
        <mxCell id="RKfO6y1YNoKgrtGscj-k-91" value="" style="endArrow=none;html=1;rounded=0;exitX=1;exitY=0;exitDx=0;exitDy=0;entryX=0.25;entryY=1;entryDx=0;entryDy=0;" parent="1" source="RKfO6y1YNoKgrtGscj-k-67" target="RKfO6y1YNoKgrtGscj-k-61" edge="1">
          <mxGeometry width="50" height="50" relative="1" as="geometry">
            <mxPoint x="-10" y="741.87" as="sourcePoint" />
            <mxPoint x="40" y="691.87" as="targetPoint" />
          </mxGeometry>
        </mxCell>
        <mxCell id="RKfO6y1YNoKgrtGscj-k-92" value="" style="endArrow=none;html=1;rounded=0;exitX=0.75;exitY=1;exitDx=0;exitDy=0;entryX=0;entryY=0;entryDx=0;entryDy=0;" parent="1" source="RKfO6y1YNoKgrtGscj-k-61" target="ytKKcmS-jhj2WB2D3jcE-41" edge="1">
          <mxGeometry width="50" height="50" relative="1" as="geometry">
            <mxPoint x="-10" y="741.87" as="sourcePoint" />
            <mxPoint x="45.99203747536308" y="802.6886479460022" as="targetPoint" />
          </mxGeometry>
        </mxCell>
        <mxCell id="RKfO6y1YNoKgrtGscj-k-93" value="" style="endArrow=none;html=1;rounded=0;entryX=0;entryY=0.75;entryDx=0;entryDy=0;exitX=1;exitY=0.5;exitDx=0;exitDy=0;" parent="1" source="RKfO6y1YNoKgrtGscj-k-49" target="RKfO6y1YNoKgrtGscj-k-43" edge="1">
          <mxGeometry width="50" height="50" relative="1" as="geometry">
            <mxPoint x="498" y="787.6800000000001" as="sourcePoint" />
            <mxPoint x="548" y="737.6800000000001" as="targetPoint" />
          </mxGeometry>
        </mxCell>
        <mxCell id="RKfO6y1YNoKgrtGscj-k-94" value="" style="endArrow=none;html=1;rounded=0;entryX=0.25;entryY=1;entryDx=0;entryDy=0;exitX=1;exitY=0;exitDx=0;exitDy=0;" parent="1" source="RKfO6y1YNoKgrtGscj-k-50" target="RKfO6y1YNoKgrtGscj-k-43" edge="1">
          <mxGeometry width="50" height="50" relative="1" as="geometry">
            <mxPoint x="498" y="787.6800000000001" as="sourcePoint" />
            <mxPoint x="548" y="737.6800000000001" as="targetPoint" />
          </mxGeometry>
        </mxCell>
        <mxCell id="RKfO6y1YNoKgrtGscj-k-95" value="" style="endArrow=none;html=1;rounded=0;entryX=0.5;entryY=0;entryDx=0;entryDy=0;exitX=0.5;exitY=1;exitDx=0;exitDy=0;" parent="1" source="RKfO6y1YNoKgrtGscj-k-43" target="RKfO6y1YNoKgrtGscj-k-46" edge="1">
          <mxGeometry width="50" height="50" relative="1" as="geometry">
            <mxPoint x="498" y="787.6800000000001" as="sourcePoint" />
            <mxPoint x="548" y="737.6800000000001" as="targetPoint" />
          </mxGeometry>
        </mxCell>
        <mxCell id="RKfO6y1YNoKgrtGscj-k-96" value="" style="endArrow=none;html=1;rounded=0;entryX=0;entryY=0;entryDx=0;entryDy=0;exitX=0.75;exitY=1;exitDx=0;exitDy=0;" parent="1" source="RKfO6y1YNoKgrtGscj-k-43" target="RKfO6y1YNoKgrtGscj-k-52" edge="1">
          <mxGeometry width="50" height="50" relative="1" as="geometry">
            <mxPoint x="498" y="787.6800000000001" as="sourcePoint" />
            <mxPoint x="548" y="737.6800000000001" as="targetPoint" />
          </mxGeometry>
        </mxCell>
        <mxCell id="RKfO6y1YNoKgrtGscj-k-97" value="" style="endArrow=none;html=1;rounded=0;entryX=0;entryY=0;entryDx=0;entryDy=0;exitX=1;exitY=0.75;exitDx=0;exitDy=0;" parent="1" source="RKfO6y1YNoKgrtGscj-k-43" target="RKfO6y1YNoKgrtGscj-k-51" edge="1">
          <mxGeometry width="50" height="50" relative="1" as="geometry">
            <mxPoint x="498" y="787.6800000000001" as="sourcePoint" />
            <mxPoint x="548" y="737.6800000000001" as="targetPoint" />
          </mxGeometry>
        </mxCell>
        <mxCell id="RKfO6y1YNoKgrtGscj-k-98" value="" style="endArrow=none;html=1;rounded=0;entryX=0;entryY=0.5;entryDx=0;entryDy=0;exitX=1;exitY=0.5;exitDx=0;exitDy=0;" parent="1" source="RKfO6y1YNoKgrtGscj-k-43" target="RKfO6y1YNoKgrtGscj-k-48" edge="1">
          <mxGeometry width="50" height="50" relative="1" as="geometry">
            <mxPoint x="498" y="787.6800000000001" as="sourcePoint" />
            <mxPoint x="548" y="737.6800000000001" as="targetPoint" />
          </mxGeometry>
        </mxCell>
        <mxCell id="RKfO6y1YNoKgrtGscj-k-99" value="" style="endArrow=none;html=1;rounded=0;entryX=0;entryY=1;entryDx=0;entryDy=0;exitX=0.75;exitY=0;exitDx=0;exitDy=0;" parent="1" source="PmyjPZmIPsv8LRqFI0As-14" target="ytKKcmS-jhj2WB2D3jcE-3" edge="1">
          <mxGeometry width="50" height="50" relative="1" as="geometry">
            <mxPoint x="370" y="380" as="sourcePoint" />
            <mxPoint x="344.8044961326225" y="330.4316847513719" as="targetPoint" />
          </mxGeometry>
        </mxCell>
        <mxCell id="RKfO6y1YNoKgrtGscj-k-100" value="" style="endArrow=none;html=1;rounded=0;entryX=1;entryY=1;entryDx=0;entryDy=0;exitX=0.25;exitY=0;exitDx=0;exitDy=0;" parent="1" source="PmyjPZmIPsv8LRqFI0As-14" target="PmyjPZmIPsv8LRqFI0As-15" edge="1">
          <mxGeometry width="50" height="50" relative="1" as="geometry">
            <mxPoint x="370" y="380" as="sourcePoint" />
            <mxPoint x="420" y="330" as="targetPoint" />
          </mxGeometry>
        </mxCell>
        <mxCell id="RKfO6y1YNoKgrtGscj-k-103" value="" style="endArrow=none;html=1;rounded=0;exitX=1;exitY=0.5;exitDx=0;exitDy=0;entryX=0;entryY=0.25;entryDx=0;entryDy=0;" parent="1" source="RKfO6y1YNoKgrtGscj-k-19" target="RKfO6y1YNoKgrtGscj-k-18" edge="1">
          <mxGeometry width="50" height="50" relative="1" as="geometry">
            <mxPoint x="713" y="575.36" as="sourcePoint" />
            <mxPoint x="763" y="525.36" as="targetPoint" />
          </mxGeometry>
        </mxCell>
        <mxCell id="RKfO6y1YNoKgrtGscj-k-105" value="" style="endArrow=none;html=1;rounded=0;exitX=1;exitY=1;exitDx=0;exitDy=0;entryX=0.132;entryY=0;entryDx=0;entryDy=0;entryPerimeter=0;" parent="1" source="RKfO6y1YNoKgrtGscj-k-21" target="RKfO6y1YNoKgrtGscj-k-18" edge="1">
          <mxGeometry width="50" height="50" relative="1" as="geometry">
            <mxPoint x="583" y="595.36" as="sourcePoint" />
            <mxPoint x="633" y="545.36" as="targetPoint" />
          </mxGeometry>
        </mxCell>
        <mxCell id="RKfO6y1YNoKgrtGscj-k-106" value="" style="endArrow=none;html=1;rounded=0;entryX=0.5;entryY=1;entryDx=0;entryDy=0;exitX=0.25;exitY=0;exitDx=0;exitDy=0;" parent="1" source="RKfO6y1YNoKgrtGscj-k-18" target="RKfO6y1YNoKgrtGscj-k-22" edge="1">
          <mxGeometry width="50" height="50" relative="1" as="geometry">
            <mxPoint x="583" y="595.36" as="sourcePoint" />
            <mxPoint x="633" y="545.36" as="targetPoint" />
          </mxGeometry>
        </mxCell>
        <mxCell id="RKfO6y1YNoKgrtGscj-k-107" value="" style="endArrow=none;html=1;rounded=0;entryX=0;entryY=1;entryDx=0;entryDy=0;exitX=0.5;exitY=0;exitDx=0;exitDy=0;" parent="1" source="RKfO6y1YNoKgrtGscj-k-18" target="RKfO6y1YNoKgrtGscj-k-20" edge="1">
          <mxGeometry width="50" height="50" relative="1" as="geometry">
            <mxPoint x="583" y="595.36" as="sourcePoint" />
            <mxPoint x="633" y="545.36" as="targetPoint" />
          </mxGeometry>
        </mxCell>
        <mxCell id="RKfO6y1YNoKgrtGscj-k-108" value="" style="endArrow=none;html=1;rounded=0;entryX=0;entryY=0.5;entryDx=0;entryDy=0;" parent="1" target="RKfO6y1YNoKgrtGscj-k-23" edge="1">
          <mxGeometry width="50" height="50" relative="1" as="geometry">
            <mxPoint x="643" y="595.36" as="sourcePoint" />
            <mxPoint x="693" y="545.36" as="targetPoint" />
          </mxGeometry>
        </mxCell>
        <mxCell id="RKfO6y1YNoKgrtGscj-k-109" value="" style="endArrow=none;html=1;rounded=0;exitX=1;exitY=0.25;exitDx=0;exitDy=0;entryX=0;entryY=0.5;entryDx=0;entryDy=0;" parent="1" source="RKfO6y1YNoKgrtGscj-k-18" target="RKfO6y1YNoKgrtGscj-k-24" edge="1">
          <mxGeometry width="50" height="50" relative="1" as="geometry">
            <mxPoint x="643" y="595.36" as="sourcePoint" />
            <mxPoint x="693" y="545.36" as="targetPoint" />
          </mxGeometry>
        </mxCell>
        <mxCell id="RKfO6y1YNoKgrtGscj-k-110" value="" style="endArrow=none;html=1;rounded=0;entryX=0;entryY=0.5;entryDx=0;entryDy=0;exitX=1;exitY=0.5;exitDx=0;exitDy=0;" parent="1" source="RKfO6y1YNoKgrtGscj-k-18" target="RKfO6y1YNoKgrtGscj-k-25" edge="1">
          <mxGeometry width="50" height="50" relative="1" as="geometry">
            <mxPoint x="643" y="595.36" as="sourcePoint" />
            <mxPoint x="693" y="545.36" as="targetPoint" />
          </mxGeometry>
        </mxCell>
        <mxCell id="RKfO6y1YNoKgrtGscj-k-111" value="" style="endArrow=none;html=1;rounded=0;entryX=0;entryY=0;entryDx=0;entryDy=0;exitX=1;exitY=1;exitDx=0;exitDy=0;" parent="1" source="RKfO6y1YNoKgrtGscj-k-18" target="RKfO6y1YNoKgrtGscj-k-28" edge="1">
          <mxGeometry width="50" height="50" relative="1" as="geometry">
            <mxPoint x="643" y="635.36" as="sourcePoint" />
            <mxPoint x="693" y="585.36" as="targetPoint" />
          </mxGeometry>
        </mxCell>
        <mxCell id="RKfO6y1YNoKgrtGscj-k-112" value="" style="endArrow=none;html=1;rounded=0;entryX=0.5;entryY=0;entryDx=0;entryDy=0;" parent="1" target="RKfO6y1YNoKgrtGscj-k-27" edge="1">
          <mxGeometry width="50" height="50" relative="1" as="geometry">
            <mxPoint x="643" y="635.36" as="sourcePoint" />
            <mxPoint x="693" y="585.36" as="targetPoint" />
          </mxGeometry>
        </mxCell>
        <mxCell id="RKfO6y1YNoKgrtGscj-k-113" value="" style="endArrow=none;html=1;rounded=0;entryX=0.5;entryY=0;entryDx=0;entryDy=0;exitX=0.5;exitY=1;exitDx=0;exitDy=0;" parent="1" source="RKfO6y1YNoKgrtGscj-k-18" target="RKfO6y1YNoKgrtGscj-k-26" edge="1">
          <mxGeometry width="50" height="50" relative="1" as="geometry">
            <mxPoint x="643" y="635.36" as="sourcePoint" />
            <mxPoint x="693" y="585.36" as="targetPoint" />
          </mxGeometry>
        </mxCell>
        <mxCell id="RKfO6y1YNoKgrtGscj-k-114" value="" style="endArrow=none;html=1;rounded=0;exitX=0.25;exitY=0;exitDx=0;exitDy=0;entryX=1;entryY=1;entryDx=0;entryDy=0;" parent="1" source="PmyjPZmIPsv8LRqFI0As-65" target="ytKKcmS-jhj2WB2D3jcE-39" edge="1">
          <mxGeometry width="50" height="50" relative="1" as="geometry">
            <mxPoint x="275" y="816.3200000000002" as="sourcePoint" />
            <mxPoint x="273" y="777.0000000000002" as="targetPoint" />
          </mxGeometry>
        </mxCell>
        <mxCell id="RKfO6y1YNoKgrtGscj-k-115" value="" style="endArrow=none;html=1;rounded=0;exitX=0.5;exitY=0;exitDx=0;exitDy=0;entryX=0.5;entryY=1;entryDx=0;entryDy=0;" parent="1" source="PmyjPZmIPsv8LRqFI0As-83" target="PmyjPZmIPsv8LRqFI0As-65" edge="1">
          <mxGeometry width="50" height="50" relative="1" as="geometry">
            <mxPoint x="308" y="779.6800000000001" as="sourcePoint" />
            <mxPoint x="228" y="777.0000000000002" as="targetPoint" />
          </mxGeometry>
        </mxCell>
        <mxCell id="RKfO6y1YNoKgrtGscj-k-116" value="" style="endArrow=none;html=1;rounded=0;exitX=1;exitY=1;exitDx=0;exitDy=0;entryX=0;entryY=0;entryDx=0;entryDy=0;" parent="1" source="PmyjPZmIPsv8LRqFI0As-65" target="PmyjPZmIPsv8LRqFI0As-81" edge="1">
          <mxGeometry width="50" height="50" relative="1" as="geometry">
            <mxPoint x="318" y="777.0000000000002" as="sourcePoint" />
            <mxPoint x="358" y="729.6800000000001" as="targetPoint" />
          </mxGeometry>
        </mxCell>
        <mxCell id="RKfO6y1YNoKgrtGscj-k-117" value="&lt;font style=&quot;font-size: 8px;&quot;&gt;(1,1)&lt;/font&gt;" style="text;html=1;strokeColor=none;fillColor=none;align=center;verticalAlign=middle;whiteSpace=wrap;rounded=0;" parent="1" vertex="1">
          <mxGeometry x="55" y="563" width="20" height="7.5" as="geometry" />
        </mxCell>
        <mxCell id="ytKKcmS-jhj2WB2D3jcE-1" value="" style="endArrow=none;html=1;rounded=0;exitX=0.5;exitY=0;exitDx=0;exitDy=0;entryX=0.5;entryY=1;entryDx=0;entryDy=0;" parent="1" target="PmyjPZmIPsv8LRqFI0As-20" edge="1">
          <mxGeometry width="50" height="50" relative="1" as="geometry">
            <mxPoint x="274.76" y="270" as="sourcePoint" />
            <mxPoint x="274.76" y="210" as="targetPoint" />
          </mxGeometry>
        </mxCell>
        <mxCell id="PmyjPZmIPsv8LRqFI0As-20" value="Resides" style="rhombus;whiteSpace=wrap;html=1;" parent="1" vertex="1">
          <mxGeometry x="240" y="242.32" width="70" height="70" as="geometry" />
        </mxCell>
        <mxCell id="ytKKcmS-jhj2WB2D3jcE-2" value="&lt;u&gt;dispositionID&lt;/u&gt;" style="ellipse;whiteSpace=wrap;html=1;" parent="1" vertex="1">
          <mxGeometry x="348" y="557.59" width="81" height="29.82" as="geometry" />
        </mxCell>
        <mxCell id="ytKKcmS-jhj2WB2D3jcE-3" value="birthNumber" style="ellipse;whiteSpace=wrap;html=1;" parent="1" vertex="1">
          <mxGeometry x="340" y="303.07" width="74" height="31.75" as="geometry" />
        </mxCell>
        <mxCell id="ytKKcmS-jhj2WB2D3jcE-4" value="dispositionType" style="ellipse;whiteSpace=wrap;html=1;" parent="1" vertex="1">
          <mxGeometry x="323" y="610" width="91" height="30" as="geometry" />
        </mxCell>
        <mxCell id="ytKKcmS-jhj2WB2D3jcE-8" value="Disponent" style="rounded=0;whiteSpace=wrap;html=1;" parent="1" vertex="1">
          <mxGeometry x="230" y="552.5000000000001" width="90" height="40" as="geometry" />
        </mxCell>
        <mxCell id="ytKKcmS-jhj2WB2D3jcE-9" value="" style="endArrow=none;html=1;rounded=0;entryX=0.5;entryY=1;entryDx=0;entryDy=0;exitX=0.5;exitY=0;exitDx=0;exitDy=0;" parent="1" source="PmyjPZmIPsv8LRqFI0As-64" target="PmyjPZmIPsv8LRqFI0As-14" edge="1">
          <mxGeometry width="50" height="50" relative="1" as="geometry">
            <mxPoint x="210" y="590" as="sourcePoint" />
            <mxPoint x="260" y="540" as="targetPoint" />
          </mxGeometry>
        </mxCell>
        <mxCell id="ytKKcmS-jhj2WB2D3jcE-10" value="" style="endArrow=none;html=1;rounded=0;entryX=0.5;entryY=1;entryDx=0;entryDy=0;exitX=0.5;exitY=0;exitDx=0;exitDy=0;" parent="1" source="ytKKcmS-jhj2WB2D3jcE-8" target="PmyjPZmIPsv8LRqFI0As-64" edge="1">
          <mxGeometry width="50" height="50" relative="1" as="geometry">
            <mxPoint x="210" y="590" as="sourcePoint" />
            <mxPoint x="260" y="540" as="targetPoint" />
          </mxGeometry>
        </mxCell>
        <mxCell id="ytKKcmS-jhj2WB2D3jcE-11" value="clientID" style="ellipse;whiteSpace=wrap;html=1;" parent="1" vertex="1">
          <mxGeometry x="170" y="501.34" width="60" height="30" as="geometry" />
        </mxCell>
        <mxCell id="ytKKcmS-jhj2WB2D3jcE-12" value="accountID" style="ellipse;whiteSpace=wrap;html=1;" parent="1" vertex="1">
          <mxGeometry x="329" y="502.68" width="70" height="27.32" as="geometry" />
        </mxCell>
        <mxCell id="ytKKcmS-jhj2WB2D3jcE-15" value="&lt;font style=&quot;font-size: 8px;&quot;&gt;(1,1)&lt;/font&gt;" style="text;html=1;strokeColor=none;fillColor=none;align=center;verticalAlign=middle;whiteSpace=wrap;rounded=0;" parent="1" vertex="1">
          <mxGeometry x="255" y="424.99999999999994" width="20" height="7.5" as="geometry" />
        </mxCell>
        <mxCell id="ytKKcmS-jhj2WB2D3jcE-16" value="&lt;font style=&quot;font-size: 8px;&quot;&gt;(1,1)&lt;/font&gt;" style="text;html=1;strokeColor=none;fillColor=none;align=center;verticalAlign=middle;whiteSpace=wrap;rounded=0;" parent="1" vertex="1">
          <mxGeometry x="255" y="527.5" width="20" height="7.5" as="geometry" />
        </mxCell>
        <mxCell id="ytKKcmS-jhj2WB2D3jcE-18" value="Owns" style="rhombus;whiteSpace=wrap;html=1;" parent="1" vertex="1">
          <mxGeometry x="240" y="623.8199999999999" width="70" height="70" as="geometry" />
        </mxCell>
        <mxCell id="ytKKcmS-jhj2WB2D3jcE-20" value="" style="endArrow=none;html=1;rounded=0;exitX=0.5;exitY=1;exitDx=0;exitDy=0;entryX=0.5;entryY=0;entryDx=0;entryDy=0;" parent="1" source="ytKKcmS-jhj2WB2D3jcE-8" target="ytKKcmS-jhj2WB2D3jcE-18" edge="1">
          <mxGeometry width="50" height="50" relative="1" as="geometry">
            <mxPoint x="330" y="600" as="sourcePoint" />
            <mxPoint x="380" y="550" as="targetPoint" />
          </mxGeometry>
        </mxCell>
        <mxCell id="ytKKcmS-jhj2WB2D3jcE-21" value="" style="endArrow=none;html=1;rounded=0;exitX=0.5;exitY=1;exitDx=0;exitDy=0;entryX=0.5;entryY=0;entryDx=0;entryDy=0;" parent="1" source="ytKKcmS-jhj2WB2D3jcE-18" target="PmyjPZmIPsv8LRqFI0As-65" edge="1">
          <mxGeometry width="50" height="50" relative="1" as="geometry">
            <mxPoint x="330" y="710" as="sourcePoint" />
            <mxPoint x="380" y="660" as="targetPoint" />
          </mxGeometry>
        </mxCell>
        <mxCell id="ytKKcmS-jhj2WB2D3jcE-24" value="&lt;font style=&quot;font-size: 8px;&quot;&gt;(1,1)&lt;/font&gt;" style="text;html=1;strokeColor=none;fillColor=none;align=center;verticalAlign=middle;whiteSpace=wrap;rounded=0;" parent="1" vertex="1">
          <mxGeometry x="255" y="604.8199999999999" width="20" height="7.5" as="geometry" />
        </mxCell>
        <mxCell id="ytKKcmS-jhj2WB2D3jcE-25" value="&lt;font style=&quot;font-size: 8px;&quot;&gt;(1,M)&lt;/font&gt;" style="text;html=1;strokeColor=none;fillColor=none;align=center;verticalAlign=middle;whiteSpace=wrap;rounded=0;" parent="1" vertex="1">
          <mxGeometry x="254" y="710" width="20" height="7.5" as="geometry" />
        </mxCell>
        <mxCell id="ytKKcmS-jhj2WB2D3jcE-26" value="" style="endArrow=none;html=1;rounded=0;entryX=1;entryY=1;entryDx=0;entryDy=0;exitX=0.25;exitY=0;exitDx=0;exitDy=0;" parent="1" source="ytKKcmS-jhj2WB2D3jcE-8" target="ytKKcmS-jhj2WB2D3jcE-11" edge="1">
          <mxGeometry width="50" height="50" relative="1" as="geometry">
            <mxPoint x="240" y="580" as="sourcePoint" />
            <mxPoint x="290" y="530" as="targetPoint" />
          </mxGeometry>
        </mxCell>
        <mxCell id="ytKKcmS-jhj2WB2D3jcE-27" value="" style="endArrow=none;html=1;rounded=0;entryX=0;entryY=1;entryDx=0;entryDy=0;exitX=0.75;exitY=0;exitDx=0;exitDy=0;" parent="1" source="ytKKcmS-jhj2WB2D3jcE-8" target="ytKKcmS-jhj2WB2D3jcE-12" edge="1">
          <mxGeometry width="50" height="50" relative="1" as="geometry">
            <mxPoint x="240" y="580" as="sourcePoint" />
            <mxPoint x="290" y="530" as="targetPoint" />
          </mxGeometry>
        </mxCell>
        <mxCell id="ytKKcmS-jhj2WB2D3jcE-28" value="" style="endArrow=none;html=1;rounded=0;entryX=0;entryY=0.5;entryDx=0;entryDy=0;exitX=1;exitY=0.5;exitDx=0;exitDy=0;" parent="1" source="ytKKcmS-jhj2WB2D3jcE-8" target="ytKKcmS-jhj2WB2D3jcE-2" edge="1">
          <mxGeometry width="50" height="50" relative="1" as="geometry">
            <mxPoint x="240" y="580" as="sourcePoint" />
            <mxPoint x="290" y="530" as="targetPoint" />
          </mxGeometry>
        </mxCell>
        <mxCell id="ytKKcmS-jhj2WB2D3jcE-29" value="" style="endArrow=none;html=1;rounded=0;entryX=0;entryY=0;entryDx=0;entryDy=0;exitX=0.75;exitY=1;exitDx=0;exitDy=0;" parent="1" source="ytKKcmS-jhj2WB2D3jcE-8" target="ytKKcmS-jhj2WB2D3jcE-4" edge="1">
          <mxGeometry width="50" height="50" relative="1" as="geometry">
            <mxPoint x="240" y="580" as="sourcePoint" />
            <mxPoint x="290" y="530" as="targetPoint" />
          </mxGeometry>
        </mxCell>
        <mxCell id="ytKKcmS-jhj2WB2D3jcE-30" value="Offered" style="rhombus;whiteSpace=wrap;html=1;" parent="1" vertex="1">
          <mxGeometry x="97" y="537.5" width="70" height="70" as="geometry" />
        </mxCell>
        <mxCell id="ytKKcmS-jhj2WB2D3jcE-31" value="" style="endArrow=none;html=1;rounded=0;exitX=1;exitY=0.5;exitDx=0;exitDy=0;entryX=0;entryY=0.5;entryDx=0;entryDy=0;" parent="1" source="ytKKcmS-jhj2WB2D3jcE-30" target="ytKKcmS-jhj2WB2D3jcE-8" edge="1">
          <mxGeometry width="50" height="50" relative="1" as="geometry">
            <mxPoint x="250" y="590" as="sourcePoint" />
            <mxPoint x="300" y="540" as="targetPoint" />
          </mxGeometry>
        </mxCell>
        <mxCell id="ytKKcmS-jhj2WB2D3jcE-32" value="&lt;font style=&quot;font-size: 8px;&quot;&gt;(0,1)&lt;/font&gt;" style="text;html=1;strokeColor=none;fillColor=none;align=center;verticalAlign=middle;whiteSpace=wrap;rounded=0;" parent="1" vertex="1">
          <mxGeometry x="189" y="563" width="20" height="7.5" as="geometry" />
        </mxCell>
        <mxCell id="ytKKcmS-jhj2WB2D3jcE-33" value="" style="endArrow=none;html=1;rounded=0;entryX=0;entryY=0.5;entryDx=0;entryDy=0;exitX=1;exitY=0.5;exitDx=0;exitDy=0;" parent="1" source="RKfO6y1YNoKgrtGscj-k-75" target="ytKKcmS-jhj2WB2D3jcE-30" edge="1">
          <mxGeometry width="50" height="50" relative="1" as="geometry">
            <mxPoint x="170" y="560" as="sourcePoint" />
            <mxPoint x="220" y="510" as="targetPoint" />
          </mxGeometry>
        </mxCell>
        <mxCell id="ytKKcmS-jhj2WB2D3jcE-34" value="Given" style="rhombus;whiteSpace=wrap;html=1;" parent="1" vertex="1">
          <mxGeometry x="97" y="717.32" width="70" height="70" as="geometry" />
        </mxCell>
        <mxCell id="ytKKcmS-jhj2WB2D3jcE-35" value="" style="endArrow=none;html=1;rounded=0;entryX=0;entryY=0.5;entryDx=0;entryDy=0;exitX=1;exitY=0.5;exitDx=0;exitDy=0;" parent="1" source="ytKKcmS-jhj2WB2D3jcE-34" target="PmyjPZmIPsv8LRqFI0As-65" edge="1">
          <mxGeometry width="50" height="50" relative="1" as="geometry">
            <mxPoint x="160" y="740" as="sourcePoint" />
            <mxPoint x="210" y="690" as="targetPoint" />
          </mxGeometry>
        </mxCell>
        <mxCell id="ytKKcmS-jhj2WB2D3jcE-37" value="" style="endArrow=none;html=1;rounded=0;entryX=1;entryY=0.5;entryDx=0;entryDy=0;exitX=0;exitY=0.5;exitDx=0;exitDy=0;" parent="1" source="ytKKcmS-jhj2WB2D3jcE-34" target="RKfO6y1YNoKgrtGscj-k-61" edge="1">
          <mxGeometry width="50" height="50" relative="1" as="geometry">
            <mxPoint x="110" y="750" as="sourcePoint" />
            <mxPoint x="160" y="700" as="targetPoint" />
          </mxGeometry>
        </mxCell>
        <mxCell id="ytKKcmS-jhj2WB2D3jcE-38" value="&lt;font style=&quot;font-size: 8px;&quot;&gt;(0,1)&lt;/font&gt;" style="text;html=1;strokeColor=none;fillColor=none;align=center;verticalAlign=middle;whiteSpace=wrap;rounded=0;" parent="1" vertex="1">
          <mxGeometry x="185" y="742.5" width="20" height="7.5" as="geometry" />
        </mxCell>
        <mxCell id="ytKKcmS-jhj2WB2D3jcE-39" value="&lt;u&gt;accountID&lt;/u&gt;" style="ellipse;whiteSpace=wrap;html=1;" parent="1" vertex="1">
          <mxGeometry x="164" y="680.87" width="70" height="27.32" as="geometry" />
        </mxCell>
        <mxCell id="ytKKcmS-jhj2WB2D3jcE-40" value="monthlyPayments" style="ellipse;whiteSpace=wrap;html=1;dashed=1;" parent="1" vertex="1">
          <mxGeometry x="-200" y="737.4100000000001" width="110.5" height="29.82" as="geometry" />
        </mxCell>
        <mxCell id="ytKKcmS-jhj2WB2D3jcE-41" value="approvalDate" style="ellipse;whiteSpace=wrap;html=1;" parent="1" vertex="1">
          <mxGeometry x="55.75" y="802.5" width="81" height="29.82" as="geometry" />
        </mxCell>
      </root>
    </mxGraphModel>
  </diagram>
</mxfile>
